<?xml version="1.0" encoding="UTF-8" standalone="no"?>
<svg
   width="127.99997"
   height="127.99997"
   version="1.1"
   id="svg1"
   sodipodi:docname="Icon.svg"
   xml:space="preserve"
   inkscape:version="1.3.2 (091e20e, 2023-11-25, custom)"
   inkscape:export-filename="Icon.png"
   inkscape:export-xdpi="96"
   inkscape:export-ydpi="96"
   xmlns:inkscape="http://www.inkscape.org/namespaces/inkscape"
   xmlns:sodipodi="http://sodipodi.sourceforge.net/DTD/sodipodi-0.dtd"
   xmlns="http://www.w3.org/2000/svg"
   xmlns:svg="http://www.w3.org/2000/svg"><defs
     id="defs1" /><sodipodi:namedview
     id="namedview1"
     pagecolor="#505050"
     bordercolor="#ffffff"
     borderopacity="1"
     inkscape:showpageshadow="0"
     inkscape:pageopacity="0"
     inkscape:pagecheckerboard="1"
     inkscape:deskcolor="#505050"
     inkscape:zoom="4"
     inkscape:cx="74.875"
     inkscape:cy="69.625"
     inkscape:current-layer="svg1" /><rect
     style="fill:#5b6a8a;fill-opacity:1;fill-rule:evenodd;stroke:#aeb2b8;stroke-width:3.8788;stroke-linecap:round;stroke-linejoin:round;stroke-miterlimit:80;stroke-dasharray:none;stroke-dashoffset:2.09998;stroke-opacity:1;paint-order:stroke fill markers"
     id="rect1"
     width="124.12118"
     height="124.12118"
     x="1.939389"
     y="1.9393966"
     ry="17.696966" /><path
     id="path1"
     style="color:#000000;fill:#8da5f3;stroke:#6383b8;stroke-width:6.73684;stroke-linecap:round;stroke-linejoin:round;stroke-opacity:1;-inkscape-stroke:none;paint-order:stroke markers fill"
     d="m 94.630577,20.826153 c -4.353772,-0.05198 -8.768701,1.962013 -11.53947,6.605262 -9.876999,0.889447 -17.218344,4.455444 -22.039474,9.986843 -6.272122,7.200334 -8.105454,16.062268 -9.736842,24 L 44.117422,85.799836 31.959527,69.58931 c -2.234169,-2.976473 -6.458611,-3.577438 -9.434211,-1.342107 -2.968107,2.233337 -3.568481,6.447724 -1.342105,9.421056 l 20.210527,26.947371 c 3.325745,4.42003 10.26638,3.17072 11.842105,-2.13158 L 64.288475,65.036679 68.928399,49.772777 c 0.403065,-0.908639 1.269679,-2.338229 2.281128,-3.499256 2.330981,-2.686074 5.644511,-4.78356 11.710525,-5.447369 6.404204,11.455945 23.728988,7.929499 25.144738,-5.118421 0.91553,-8.965246 -6.17792,-14.794943 -13.434213,-14.881578 z"
     sodipodi:nodetypes="sccccccccccccccs" /></svg>
