<?xml version="1.0" encoding="UTF-8" standalone="no"?>
<!-- Created with Inkscape (http://www.inkscape.org/) -->

<svg
   width="300"
   height="60"
   viewBox="0 0 79.374999 15.875"
   version="1.1"
   id="svg1"
   inkscape:version="1.3.2 (091e20e, 2023-11-25, custom)"
   sodipodi:docname="tail.stroke.svg"
   xmlns:inkscape="http://www.inkscape.org/namespaces/inkscape"
   xmlns:sodipodi="http://sodipodi.sourceforge.net/DTD/sodipodi-0.dtd"
   xmlns="http://www.w3.org/2000/svg"
   xmlns:svg="http://www.w3.org/2000/svg">
  <sodipodi:namedview
     id="namedview1"
     pagecolor="#505050"
     bordercolor="#ffffff"
     borderopacity="1"
     inkscape:showpageshadow="0"
     inkscape:pageopacity="0"
     inkscape:pagecheckerboard="1"
     inkscape:deskcolor="#505050"
     inkscape:document-units="px"
     showguides="true"
     inkscape:zoom="12.7"
     inkscape:cx="169.64567"
     inkscape:cy="45.787401"
     inkscape:current-layer="layer1">
    <sodipodi:guide
       position="12.374369,1.6150132"
       orientation="0,-1"
       id="guide5"
       inkscape:locked="false" />
    <sodipodi:guide
       position="4.2426406,-2.5097763"
       orientation="1,0"
       id="guide6"
       inkscape:locked="false" />
    <sodipodi:guide
       position="30.833333,17.541667"
       orientation="1,0"
       id="guide7"
       inkscape:locked="false" />
    <sodipodi:guide
       position="26.479166,2.6666666"
       orientation="1,0"
       id="guide8"
       inkscape:locked="false" />
    <sodipodi:guide
       position="52.999999,3.875"
       orientation="1,0"
       id="guide9"
       inkscape:locked="false" />
    <sodipodi:guide
       position="57.249999,-1.2083334"
       orientation="1,0"
       id="guide10"
       inkscape:locked="false" />
  </sodipodi:namedview>
  <defs
     id="defs1" />
  <g
     inkscape:label="Layer 1"
     inkscape:groupmode="layer"
     id="layer1"
     transform="translate(-105.7508,-137.73005)">
    <path
       id="path12"
       style="fill:none;stroke-width:1.05833333;stroke-linecap:square;stroke-miterlimit:80;stroke-dashoffset:2.09998;paint-order:markers fill stroke;stroke-dasharray:none;stroke:#673331;stroke-opacity:1"
       inkscape:transform-center-x="-9.0106428"
       inkscape:transform-center-y="-4.9427833"
       d="m 172.00125,138.9757 c -8.14172,-1.15898 -10.23562,8.97612 -8.46306,11.87917 0.11379,0.86457 0.33226,1.52084 -0.61123,2.11291 -3.58737,-1.23789 -1.50179,-15.09383 8.52951,-14.88913 5.43057,0.11082 11.43107,6.39178 11.53264,6.68546 -0.21158,0.3694 -4.86086,-4.91623 -10.98786,-5.78841 z"
       sodipodi:nodetypes="sccscs" />
    <path
       id="path3"
       style="fill:none;stroke:#673331;stroke-width:1.05833;stroke-linecap:square;stroke-miterlimit:80;stroke-dasharray:none;stroke-dashoffset:2.09998;stroke-opacity:1;paint-order:markers fill stroke"
       inkscape:transform-center-x="-9.0106428"
       inkscape:transform-center-y="-4.9427833"
       d="m 111.73973,146.52872 c -4.94862,-3.4256 -3.84022,-1.23992 -0.96909,4.47456 0.11379,0.86457 0.33226,1.52084 -0.61123,2.11291 -3.58738,-1.23789 -7.05479,-13.90252 1.5821,-7.62333 4.18604,4.41613 16.34239,-3.7612 16.46928,-3.79296 0.13272,0.61672 -12.72414,8.67711 -16.47106,4.82882 z"
       sodipodi:nodetypes="cccccc" />
    <path
       id="path44"
       style="fill:none;stroke:#673331;stroke-width:1.06929;stroke-linecap:square;stroke-miterlimit:80;stroke-dasharray:none;stroke-dashoffset:2.09998;stroke-opacity:1;paint-order:markers fill stroke"
       inkscape:transform-center-x="-9.0106428"
       inkscape:transform-center-y="-4.9427833"
       d="m 139.7078,143.66795 c -1.81812,1.07848 -3.74843,4.47067 -2.47169,7.15567 0.11379,0.86457 0.33226,1.52084 -0.61123,2.11291 -3.58737,-1.23789 -2.2162,-8.14794 3.09201,-10.34746 2.99381,-1.24053 17.40243,-1.73951 17.50553,-1.44414 0.0591,0.53608 -15.21957,1.16163 -17.51462,2.52302 z"
       sodipodi:nodetypes="sccscs" />
  </g>
</svg>
